<svg xmlns="http://www.w3.org/2000/svg" viewBox="0 0 742 816" width="742" height="816">
  <rect width="742" height="816" fill="#220247"/>
  <!-- Left Z -->
  <path d="M 124 277 C 121 279 117 285 116 288 C 114 294 112 300 111 306 C 111 309 112 314 112 317 C 144 313 178 321 210 314 L 211 321 C 206 326 202 332 197 337 C 193 342 188 346 184 351 C 174 362 165 374 155 385 C 152 388 149 391 146 394 C 137 404 129 414 120 424 C 117 427 114 431 112 434 C 108 440 101 444 97 450 C 96 452 94 454 94 456 C 91 472 95 487 112 491 C 135 493 157 490 180 491 C 203 492 226 491 249 491 C 254 489 263 482 265 477 C 267 472 270 471 271 469 C 272 463 283 446 271 445 C 259 444 248 445 236 445 C 224 445 213 445 201 445 C 189 445 178 445 166 445 C 174 436 181 427 189 418 C 190 417 191 415 192 414 C 195 410 201 404 202 400 C 203 397 208 392 213 389 C 217 385 223 378 224 377 C 226 375 228 374 230 372 C 239 360 251 350 260 339 C 269 327 284 316 285 301 C 285 298 285 295 285 292 C 284 270 261 271 243 272 C 225 273 200 270 181 272 C 162 274 140 267 124 277 Z" fill="#F8F8F9"/>
  <!-- Right Z -->
  <path d="M 557 319 C 558 320 547 330 546 332 C 526 356 505 379 485 403 C 485 404 487 404 484 407 C 481 411 477 412 474 415 C 473 416 472 417 471 418 C 462 433 447 439 441 456 C 436 474 453 496 473 492 C 493 488 520 495 541 492 C 562 489 586 497 605 489 C 608 487 612 483 614 480 C 615 477 616 474 617 471 C 617 468 617 460 619 458 C 620 455 623 448 619 446 C 612 445 604 447 597 446 C 590 445 582 446 575 446 C 568 446 559 446 553 446 C 547 446 536 447 531 446 C 526 445 511 448 511 444 C 511 440 518 439 515 435 C 518 437 518 433 521 433 C 521 433 522 433 522 433 C 530 421 542 411 551 399 C 554 395 558 391 562 387 C 575 372 587 358 600 342 C 613 326 633 313 629 291 C 627 286 623 277 618 274 C 611 271 603 272 595 272 C 587 272 579 272 571 272 C 563 272 555 272 547 272 C 539 272 530 272 522 272 C 514 272 506 272 498 272 C 490 272 482 271 476 274 C 469 276 466 280 463 286 C 460 291 459 298 457 304 C 455 310 451 318 460 319 C 469 320 477 318 485 319 C 493 320 501 318 509 319 C 517 320 526 317 533 319 C 540 321 551 316 557 319 Z" fill="#F8F8F9"/>
  <!-- Lightning bolt (yellow A-shape) -->
  <path d="M 434 197 C 432 200 429 204 426 207 C 417 219 405 231 397 244 C 392 252 385 259 379 265 C 378 266 377 267 376 268 C 375 269 375 270 374 271 C 370 277 365 281 361 286 C 360 288 359 290 357 292 C 353 297 350 301 346 306 C 343 310 339 313 336 317 C 335 318 335 320 334 321 C 331 325 328 328 325 331 C 323 334 321 337 319 340 C 314 348 308 357 300 362 C 300 362 300 363 300 363 C 298 368 292 374 288 377 C 288 377 288 378 288 378 C 285 382 279 390 286 393 C 305 391 324 394 343 393 C 341 398 339 404 336 408 C 334 418 327 428 324 438 C 322 444 320 451 316 456 C 316 457 315 457 315 458 C 312 465 309 472 306 478 C 305 482 303 486 302 490 C 301 495 298 499 296 504 C 292 513 288 523 284 532 C 283 536 278 543 278 546 C 278 548 278 550 280 550 C 287 540 296 531 303 521 C 302 520 309 512 312 509 C 314 506 319 499 322 496 C 324 492 330 487 334 484 C 334 484 335 483 335 483 C 335 483 335 482 335 482 C 340 475 346 468 352 462 C 354 460 355 457 357 455 C 366 443 377 425 390 416 C 390 416 390 415 390 415 C 401 401 412 389 424 376 C 427 372 433 365 436 362 C 439 359 449 348 443 346 C 438 351 425 345 418 347 C 411 349 400 345 393 348 C 386 351 376 347 381 340 C 386 334 385 327 389 322 C 393 317 392 306 398 304 C 399 302 399 300 400 298 C 403 287 408 276 414 265 C 416 260 419 255 420 250 C 420 250 420 249 420 248 C 420 238 429 228 433 220 C 434 218 434 217 435 215 C 436 213 436 212 436 210 C 438 203 441 197 443 190 C 441 189 435 196 434 197 Z" fill="#F5E447"/>
</svg>
